PathFileType	4	(X/Y/Z)	C:/Users/beibeiliu/ov580/test_trc\sequence.9_training_dense_left.trc
DataRate	CameraRate	NumFrames	NumMarkers	Units	OrigDataRate	OrigDataStartFrame	OrigNumFrames
120	120	19	19	mm	120	100	398
Frame#	Time	ThumbCMC			ThumbMCP			ThumbIP			ThumbTip			IndexMCP			IndexPIP			IndexTip			MiddleMCP			MiddlePIP			MiddleTip			RingMCP			RingPIP			RingTip			PinkyMCP			PinkyPIP			PinkyTip			BackHand1			BackHand2			BackHand3	
		X0	Y0	Z0	X1	Y1	Z1	X2	Y2	Z2	X3	Y3	Z3	X4	Y4	Z4	X5	Y5	Z5	X6	Y6	Z6	X7	Y7	Z7	X8	Y8	Z8	X9	Y9	Z9	X10	Y10	Z10	X11	Y11	Z11	X12	Y12	Z12	X13	Y13	Z13	X14	Y14	Z14	X15	Y15	Z15	X16	Y16	Z16	X17	Y17	Z17	X18	Y18	Z18	
99	0.825	-188.746	2.6253	6.50049	-202.038	22.8237	-3.69917	-212.869	35.3439	-15.7451	-221.282	47.1236	-25.4734	-168.179	23.9619	-52.3252	-168.489	34.859	-68.3937	-167.609	47.6707	-88.9027	-141.878	21.4519	-49.9378	-137.072	37.2253	-70.8607	-128.22	52.637	-90.7532	-122.646	20.99	-40.2976	-117.559	32.5592	-55.3416	-111.32	44.77	-71.0604	-110.947	16.127	-17.6264	-96.9831	26.4553	-25.008	-82.9007	32.3859	-34.1712	-138.333	-10.8597	-7.56058	-146.207	-23.3249	11.7927	-167.537	-17.0995	-3.96949	
100	0.833333	-189.435	3.38684	11.4428	-204.019	24.2039	-4.14458	-212.9	35.5831	-16.9322	-224.417	46.0013	-27.2013	-172.701	20.1419	-53.0086	-171.459	30.5938	-71.2261	-170.182	41.0281	-94.983	-144.252	19.1599	-58.1145	-140.884	28.992	-75.1028	-135.367	42.2009	-98.2873	-128.471	15.2339	-43.2379	-122.21	25.7429	-61.1969	-112.92	35.4948	-80.6922	-108.398	14.0703	-21.3951	-99.4734	21.7212	-33.7916	-84.8025	24.0858	-43.9147	-139.979	-9.91886	-9.98625	-149.315	-22.4832	14.4457	-171.112	-12.9268	-4.74307	
101	0.841667	-191.113	7.20806	5.9661	-199.016	26.0795	-4.09099	-209.165	37.9161	-19.958	-222.337	47.6491	-29.8745	-175.658	18.1113	-55.1766	-176.031	27.3127	-73.1071	-172.968	35.3171	-99.0592	-149.145	14.2069	-56.6186	-142.26	24.4594	-81.1768	-135.46	31.462	-100.547	-131.1	11.6357	-47.9055	-121.157	19.956	-68.0116	-116.307	25.766	-84.6132	-110.682	10.3368	-26.1228	-103.042	16.8706	-38.7235	-85.5657	16.9455	-50.2928	-142.944	-11.5553	-11.0328	-147.056	-19.9353	10.2255	-172.821	-13.0964	-8.74439	
102	0.85	-191.9	9.39518	5.87185	-201.709	28.7947	-7.83282	-209.501	40.3744	-20.8114	-221.766	50.7215	-31.6892	-179.103	17.0013	-59.1853	-178.8	24.6446	-77.0538	-175.9	29.6398	-96.8991	-149.117	10.4369	-61.2033	-149.782	17.9387	-82.6425	-140.688	22.8798	-104.756	-130.438	7.87845	-48.738	-126.289	13.8872	-71.108	-118.227	16.2376	-88.6197	-115.293	6.9448	-29.6331	-102.978	11.6737	-45.8188	-86.93	9.45223	-55.3629	-142.97	-11.3934	-12.6193	-151.813	-19.4708	8.91486	-171.261	-12.7921	-8.07728	
103	0.858333	-187.135	11.9267	6.49086	-197.355	30.1996	-6.8017	-210.097	42.7503	-20.6538	-221.455	52.319	-32.45	-177.521	13.7816	-58.792	-178.459	20.7925	-79.5222	-180.19	25.4558	-101.16	-152.531	6.57863	-62.1237	-148.966	11.5243	-85.8881	-145.5	14.2672	-105.074	-135.726	3.52078	-52.2768	-130.328	6.65765	-72.2763	-122.871	7.23671	-93.3229	-115.113	1.49269	-34.237	-104.816	4.65118	-49.8615	-90.9354	-0.572512	-62.1237	-144.613	-11.3571	-13.5347	-151.669	-19.3932	8.77851	-171.719	-11.4169	-6.94584	
104	0.866667	-186.251	13.5865	8.81124	-194.325	32.6692	-9.44421	-207.462	45.3752	-22.294	-220.259	54.8961	-35.0757	-179.914	12.573	-59.064	-179.218	18.319	-81.5358	-180.747	20.2305	-103.648	-153.262	1.61668	-62.6704	-152.828	4.28977	-85.2448	-149.07	5.33218	-111.573	-135.849	-3.64801	-56.2064	-134.008	-2.20448	-72.2533	-129.522	-3.32806	-94.895	-118.736	-3.99085	-33.7575	-108.042	-4.25668	-51.018	-95.337	-12.1082	-61.3709	-145.361	-16.1371	-14.239	-150.557	-23.8369	13.3555	-175.639	-9.26196	-3.7435	
105	0.875	-183.437	15.076	5.31867	-191.067	35.0446	-7.8675	-200.248	45.9303	-25.3804	-211.033	56.058	-31.0375	-181.87	13.0613	-58.1658	-179.48	15.5586	-77.8553	-185.915	17.6695	-102.67	-160.461	-1.1258	-63.0887	-157.345	-1.06918	-84.199	-155.865	-3.06867	-109.778	-140.274	-8.41853	-51.5115	-138.524	-10.0737	-76.677	-134.552	-15.318	-97.0939	-117.175	-12.1555	-36.1236	-110.067	-14.886	-50.9436	-104.341	-21.3935	-65.2772	-151.169	-16.1761	-13.417	-155.064	-22.8223	12.7231	-172.248	-9.51885	-7.11189	
106	0.883333	-184.755	19.6765	7.06454	-189.833	38.7932	-5.68841	-197.693	49.589	-25.5286	-208.876	61.0671	-37.4791	-181.296	11.98	-61.5114	-182.558	14.5367	-80.1408	-185.361	15.5277	-101.064	-160.173	-6.7485	-66.1469	-159.099	-6.43271	-85.1807	-156.763	-13.2312	-110.344	-142.934	-13.5655	-52.5433	-138.608	-17.6485	-73.4604	-137.139	-23.4629	-92.2822	-121.461	-19.5873	-41.2262	-111.656	-25.7079	-50.9114	-104.453	-37.0177	-66.6883	-149.069	-18.61	-15.0353	-154.942	-22.9326	13.8119	-176.817	-7.09925	-3.72922	
107	0.891667	-177.824	20.5246	7.92569	-183.837	39.7008	-11.9852	-190.344	50.7123	-25.052	-202.263	63.4489	-35.9046	-180.77	11.499	-57.3409	-181.102	12.5209	-79.1164	-183.6	12.312	-101.196	-161.064	-10.2714	-65.3123	-162.287	-12.0727	-86.9964	-160.795	-18.6263	-106.317	-143.539	-19.9971	-53.6993	-141.348	-26.5778	-71.2636	-145.31	-31.0081	-92.1614	-124.706	-26.9711	-39.0302	-117.972	-32.139	-51.9591	-113.311	-44.285	-66.5676	-149.917	-22.3081	-13.9725	-155.663	-23.4401	13.7549	-176.838	-8.21719	-4.81084	
108	0.9	-173.678	21.8823	7.6858	-174.525	39.0672	-11.9223	-183.517	53.3126	-25.5998	-190.198	65.4314	-34.0094	-178.193	11.6587	-57.7393	-179.776	12.2172	-78.8289	-186.386	14.24	-101.821	-164.524	-11.7083	-64.5622	-164.64	-16.3126	-87.2722	-167.226	-22.6243	-108.678	-146.239	-26.1979	-55.3219	-146.075	-32.2943	-70.4803	-149.314	-38.1555	-91.7222	-126.653	-33.4492	-38.4724	-120.651	-43.6229	-52.5627	-122.099	-52.3411	-64.4578	-154.029	-22.8283	-13.7244	-158.837	-24.8615	11.4341	-173.153	-6.07471	-5.68461	
109	0.908333	-167.653	22.1543	5.14329	-169.495	42.6246	-9.50564	-172.592	53.7391	-25.9363	-181.562	67.9926	-36.6349	-173.541	11.0307	-59.2228	-176.619	13.5988	-75.834	-182.845	15.2491	-96.216	-163.362	-12.0866	-58.9913	-167.923	-17.81	-83.7815	-169.012	-26.1904	-103.304	-150.033	-27.9276	-52.4096	-151.925	-35.3739	-73.0934	-154.044	-42.3377	-87.4851	-130.553	-40.7823	-37.8904	-129.088	-47.5283	-54.1815	-128.114	-61.7106	-63.5589	-154.103	-24.8964	-9.94071	-161.306	-25.6693	14.5694	-174.259	-4.61551	-1.72335	
110	0.916667	-162.985	25.0475	10.153	-162.684	43.8417	-11.3194	-165.624	54.3935	-27.289	-171.309	66.3272	-38.43	-171.652	13.0059	-56.5485	-174.597	13.0967	-78.69	-181.813	15.9247	-94.6291	-165.542	-11.9993	-61.093	-169.425	-19.0021	-82.4233	-177.119	-25.8554	-106.28	-153.561	-27.6941	-51.3204	-156.089	-35.4908	-69.6975	-160.725	-44.5951	-86.8542	-136.305	-41.3061	-38.0286	-134.165	-50.5713	-52.3776	-135.528	-62.1285	-64.7587	-155.251	-26.1145	-9.7367	-160.775	-26.3759	15.444	-173.443	-1.78987	-1.19963	
111	0.925	-157.254	24.2535	8.88258	-152.448	39.9338	-6.78652	-157.191	53.5922	-23.7589	-161.293	68.3892	-32.921	-168.773	15.3215	-55.8388	-172.778	15.226	-75.1529	-180.279	17.3153	-97.4296	-167.4	-9.96184	-60.5079	-170.133	-17.086	-79.6466	-179.287	-24.4775	-103.549	-154.238	-30.2597	-51.1968	-159.286	-37.4964	-68.724	-165.537	-43.5013	-86.1307	-139.39	-44.5921	-33.5768	-139.962	-54.5139	-48.3219	-144.701	-69.8663	-64.0249	-157.739	-23.7444	-14.7465	-162.267	-23.3228	14.4038	-169.002	-2.58149	-0.0374694	
112	0.933333	-152.501	26.4405	10.114	-147.068	40.597	-10.014	-149.804	53.0376	-25.0518	-152.741	69.9767	-33.6413	-165.709	17.4107	-55.2277	-171.667	21.0442	-77.5371	-179.722	20.9489	-99.1202	-164.201	-12.5316	-58.0331	-171.522	-11.4148	-78.9098	-180.49	-18.0601	-100.175	-157.282	-29.7576	-53.4082	-162.461	-35.3013	-69.6793	-169.843	-39.6146	-87.3147	-144.181	-47.0992	-39.2249	-144.984	-53.0791	-51.035	-150.513	-67.7628	-66.6206	-158.022	-25.1789	-10.9565	-162.67	-22.5016	11.5785	-168.964	0.0439339	-3.08557	
113	0.941667	-148.76	26.7822	5.87698	-142.061	38.7523	-8.49067	-143.721	54.8152	-24.9059	-146.211	70.4949	-34.0863	-161.873	17.868	-55.5936	-169.044	20.7988	-79.2996	-177.262	23.7354	-98.6165	-165.537	-12.2108	-63.9249	-171.365	-9.62181	-80.2584	-183.054	-18.2481	-105.528	-159.534	-28.0968	-55.5759	-163.862	-31.9114	-71.8295	-174.296	-40.0876	-90.7091	-146.613	-46.6668	-37.7141	-150.107	-58.7533	-53.4983	-156.678	-70.2841	-67.0995	-160.565	-20.7136	-15.1609	-163.651	-24.7494	12.3141	-166.19	3.03016	-1.4362	
114	0.95	-145.048	22.2241	8.53195	-138.791	38.4757	-13.9409	-139.654	53.6015	-28.8438	-138.508	66.6565	-35.9077	-160.661	19.6089	-57.0828	-164.936	23.4037	-79.3496	-172.249	23.216	-96.2576	-164.537	-5.26309	-62.6731	-172.17	-10.0461	-86.3361	-181.371	-10.6694	-102.143	-161.729	-29.4732	-57.4403	-165.151	-30.862	-72.6566	-174.403	-34.9883	-90.5602	-150.257	-43.815	-39.1948	-154.045	-53.1802	-55.6473	-160.656	-66.8962	-67.4497	-160.038	-22.7981	-12.3583	-164.125	-24.4065	7.79851	-166.16	1.24231	-2.72107	
115	0.958333	-143.151	20.5315	4.37526	-134.421	34.2147	-10.8911	-134.368	53.868	-28.2839	-134.007	66.326	-35.2271	-158.445	21.0719	-57.1063	-163.58	25.9787	-80.3053	-169.451	30.2597	-95.5677	-165.923	-7.31838	-64.5616	-173.032	-9.33759	-87.5135	-181.621	-7.38577	-104.023	-161.928	-23.9289	-55.3525	-170.744	-28.6673	-78.8352	-177.203	-30.9221	-95.0059	-156.436	-46.6627	-43.4771	-158.243	-55.6194	-56.2424	-167.504	-62.609	-73.5409	-162.658	-22.4173	-16.6045	-166.763	-20.3695	7.82895	-163.893	7.11694	-5.6077	
116	0.966667	-141.805	20.273	6.94746	-133.684	36.5732	-14.9317	-130.909	51.3778	-25.7475	-130.822	65.5957	-37.487	-156.57	19.9166	-58.0244	-160.983	23.798	-77.6763	-168.662	31.6741	-97.6446	-166.254	-5.75732	-63.3773	-173.367	-3.04306	-86.1574	-184.15	-7.35911	-106.017	-164.275	-25.0907	-56.2246	-171.877	-25.7955	-78.8409	-180.013	-30.3129	-94.7205	-159.202	-44.1553	-45.925	-162.598	-53.9049	-56.5279	-172.305	-62.0534	-71.2491	-166.595	-17.8077	-17.5359	-170.336	-22.4142	7.32438	-165.664	6.95063	-3.70628	
117	0.975	-140.115	20.8227	6.85954	-131.2	38.3595	-12.5708	-129.051	49.5752	-25.1507	-127.126	63.673	-34.561	-157.263	20.4552	-60.746	-159.728	28.3305	-79.9495	-167.311	33.4436	-99.1583	-166.83	-4.112	-63.6656	-172.835	-4.8797	-84.75	-183.749	-5.35067	-104.355	-165.448	-20.8981	-58.7602	-171.179	-22.8332	-75.7972	-181.44	-26.8865	-96.331	-161.49	-44.8474	-42.638	-166.406	-52.5841	-59.1407	-177.753	-57.5852	-73.9718	-167.533	-18.4794	-19.8319	-168.778	-17.2111	10.3832	-165.592	4.02511	-6.68801	
